<?xml version="1.0" encoding="UTF-8" standalone="no"?>
<!DOCTYPE svg PUBLIC "-//W3C//DTD SVG 1.1//EN" "http://www.w3.org/Graphics/SVG/1.1/DTD/svg11.dtd">
<svg width="100%" height="100%" viewBox="0 0 200 200" version="1.1" xmlns="http://www.w3.org/2000/svg" xmlns:xlink="http://www.w3.org/1999/xlink" xml:space="preserve" xmlns:serif="http://www.serif.com/" style="fill-rule:evenodd;clip-rule:evenodd;stroke-linejoin:round;stroke-miterlimit:1.41421;">
    <g transform="matrix(3.06762,0,0,3.06762,-1487.26,-28.4728)">
        <path d="M530.5,58.1C529.733,57.867 529,57.967 528.3,58.4C527.533,58.867 527.033,59.517 526.8,60.35C526.6,61.183 526.717,61.967 527.15,62.7C527.55,63.467 528.133,63.967 528.9,64.2C529.8,64.367 530.617,64.233 531.35,63.8C532.117,63.367 532.583,62.75 532.75,61.95C533.017,61.117 532.933,60.317 532.5,59.55C532.067,58.817 531.4,58.333 530.5,58.1M542.9,55.25C542.933,54.35 542.633,53.6 542,53C541.4,52.367 540.65,52.067 539.75,52.1C538.917,52.067 538.2,52.367 537.6,53C537,53.6 536.683,54.35 536.65,55.25C536.683,56.083 537,56.8 537.6,57.4C538.2,58 538.917,58.3 539.75,58.3C540.65,58.3 541.4,58 542,57.4C542.633,56.8 542.933,56.083 542.9,55.25M540.15,24.75C544.917,31.183 547.283,38.8 547.25,47.6C547.217,56.433 544.413,62.611 534.613,67.244C527.78,70.444 515.8,70.133 502.9,65.2C506.2,57.567 506.15,51.717 502.75,47.65C499.317,43.617 495.533,45.517 491.4,53.35L487.45,46L487.45,45.25C487.65,35.083 489.533,27.217 493.1,21.65C497.267,15.117 505.367,12.883 517.4,14.95C527.7,15.05 535.283,18.317 540.15,24.75" style="fill:rgb(233,53,89);fill-rule:nonzero;stroke:rgb(233,53,89);stroke-width:0.33px;"/>
    </g>
</svg>
